<svg width="15" height="14" viewBox="0 0 15 14" fill="none" xmlns="http://www.w3.org/2000/svg">
<path d="M6.7542 13.938C6.51403 13.938 6.31272 13.8568 6.15026 13.6943C5.9878 13.5318 5.90657 13.3305 5.90657 13.0904V8.00461L0.842002 1.54146C0.644223 1.3013 0.615969 1.04701 0.75724 0.778599C0.898511 0.510184 1.11748 0.375977 1.41415 0.375977H13.7895C14.0862 0.375977 14.3051 0.510184 14.4464 0.778599C14.5877 1.04701 14.5594 1.3013 14.3616 1.54146L9.29707 8.00461V13.0904C9.29707 13.3305 9.21584 13.5318 9.05338 13.6943C8.89092 13.8568 8.68961 13.938 8.44945 13.938H6.7542ZM7.60182 8.08938L12.6876 1.64742H2.51606L7.60182 8.08938Z" fill="white"/>
</svg>
