<svg width="105" height="22" viewBox="0 0 105 22" fill="none" xmlns="http://www.w3.org/2000/svg">
<path d="M1.79785 14.2069L7.64517 12.3207M20.7859 7.91943L14.8128 9.93146" stroke="#383838" stroke-width="0.983998"/>
<circle cx="11.2288" cy="10.9998" r="3.97219" stroke="#383838" stroke-width="0.983998"/>
<circle cx="11.2285" cy="11" r="10.008" stroke="#383838" stroke-width="0.983998"/>
<path fill-rule="evenodd" clip-rule="evenodd" d="M15.8766 1.58486C18.3737 2.81762 20.2788 4.99184 21.1728 7.62921L11.2747 10.9843L15.4547 9.56168C15.2658 9.0067 14.9694 8.49436 14.5826 8.05391C14.1957 7.61346 13.7258 7.25352 13.1998 6.99466C12.6738 6.73579 12.102 6.58306 11.517 6.54519C10.9319 6.50732 10.3452 6.58505 9.7902 6.77394C9.23522 6.96283 8.72288 7.25918 8.28242 7.64607C7.84197 8.03297 7.48204 8.50282 7.22317 9.02882C6.96431 9.55482 6.81158 10.1267 6.77371 10.7117C6.73596 11.2948 6.81307 11.8797 7.00065 12.4331L1.28429 14.3708C0.390302 11.7334 0.58062 8.84894 1.81338 6.35189C3.04614 3.85483 5.22035 1.94977 7.85773 1.05578C10.4951 0.161786 13.3796 0.352104 15.8766 1.58486ZM7.00065 12.4331C7.00125 12.4349 7.00185 12.4367 7.00245 12.4384L11.2286 11.0001L11.2747 10.9843L11.2285 11L7.00065 12.4331Z" fill="#383838"/>
<path d="M35.8481 12.1108H33.1016V10.5288H35.8481C36.2974 10.5288 36.6611 10.4556 36.9395 10.3091C37.2227 10.1577 37.4302 9.95264 37.562 9.69385C37.6938 9.43018 37.7598 9.12988 37.7598 8.79297C37.7598 8.46582 37.6938 8.16064 37.562 7.87744C37.4302 7.59424 37.2227 7.36475 36.9395 7.18896C36.6611 7.01318 36.2974 6.92529 35.8481 6.92529H33.7607V16H31.7466V5.33594H35.8481C36.6782 5.33594 37.3862 5.48486 37.9722 5.78271C38.563 6.07568 39.0122 6.4834 39.3198 7.00586C39.6323 7.52344 39.7886 8.11426 39.7886 8.77832C39.7886 9.4668 39.6323 10.0601 39.3198 10.5581C39.0122 11.0562 38.563 11.4395 37.9722 11.708C37.3862 11.9766 36.6782 12.1108 35.8481 12.1108ZM41.0773 12.1182V11.9644C41.0773 11.3833 41.1604 10.8486 41.3264 10.3604C41.4924 9.86719 41.7341 9.43994 42.0515 9.07861C42.3688 8.71729 42.757 8.43652 43.216 8.23633C43.675 8.03125 44.1975 7.92871 44.7834 7.92871C45.3791 7.92871 45.9064 8.03125 46.3654 8.23633C46.8293 8.43652 47.2199 8.71729 47.5373 9.07861C47.8547 9.43994 48.0964 9.86719 48.2624 10.3604C48.4284 10.8486 48.5114 11.3833 48.5114 11.9644V12.1182C48.5114 12.6943 48.4284 13.229 48.2624 13.7222C48.0964 14.2104 47.8547 14.6377 47.5373 15.0039C47.2199 15.3652 46.8317 15.646 46.3728 15.8462C45.9138 16.0464 45.3889 16.1465 44.798 16.1465C44.2121 16.1465 43.6872 16.0464 43.2233 15.8462C42.7595 15.646 42.3688 15.3652 42.0515 15.0039C41.7341 14.6377 41.4924 14.2104 41.3264 13.7222C41.1604 13.229 41.0773 12.6943 41.0773 12.1182ZM43.0109 11.9644V12.1182C43.0109 12.4648 43.0451 12.7896 43.1135 13.0923C43.1818 13.395 43.2868 13.6611 43.4284 13.8906C43.57 14.1201 43.7531 14.3008 43.9777 14.4326C44.2072 14.5596 44.4807 14.623 44.798 14.623C45.1105 14.623 45.3791 14.5596 45.6037 14.4326C45.8283 14.3008 46.0114 14.1201 46.153 13.8906C46.2995 13.6611 46.4069 13.395 46.4753 13.0923C46.5437 12.7896 46.5778 12.4648 46.5778 12.1182V11.9644C46.5778 11.6226 46.5437 11.3027 46.4753 11.0049C46.4069 10.7021 46.2995 10.436 46.153 10.2065C46.0114 9.97217 45.8259 9.78906 45.5964 9.65723C45.3718 9.52051 45.1008 9.45215 44.7834 9.45215C44.4709 9.45215 44.2023 9.52051 43.9777 9.65723C43.7531 9.78906 43.57 9.97217 43.4284 10.2065C43.2868 10.436 43.1818 10.7021 43.1135 11.0049C43.0451 11.3027 43.0109 11.6226 43.0109 11.9644ZM52.1513 4.74268V16H50.2177V4.74268H52.1513ZM57.1171 8.0752L53.6674 11.9497L51.7997 13.8467L51.1845 12.3452L52.6273 10.5288L54.7807 8.0752H57.1171ZM55.1396 16L52.6859 12.3086L53.975 11.0562L57.3808 16H55.1396ZM61.8556 16.1465C61.255 16.1465 60.7154 16.0488 60.2369 15.8535C59.7584 15.6582 59.3507 15.3872 59.0138 15.0405C58.6817 14.689 58.4254 14.2812 58.2447 13.8174C58.0689 13.3486 57.9811 12.8457 57.9811 12.3086V12.0156C57.9811 11.4053 58.0689 10.8511 58.2447 10.353C58.4205 9.8501 58.6695 9.41797 58.9918 9.05664C59.3141 8.69531 59.6998 8.41699 60.149 8.22168C60.5982 8.02637 61.0938 7.92871 61.6358 7.92871C62.1974 7.92871 62.693 8.02393 63.1227 8.21436C63.5523 8.3999 63.9112 8.66357 64.1993 9.00537C64.4874 9.34717 64.7047 9.75732 64.8512 10.2358C64.9977 10.7095 65.0709 11.2344 65.0709 11.8105V12.6235H58.86V11.2905H63.1666V11.144C63.1568 10.8364 63.0982 10.5557 62.9908 10.3018C62.8834 10.043 62.7174 9.83789 62.4928 9.68652C62.2682 9.53027 61.9776 9.45215 61.6212 9.45215C61.3331 9.45215 61.0816 9.51562 60.8668 9.64258C60.6568 9.76465 60.4811 9.94043 60.3395 10.1699C60.2027 10.3945 60.1002 10.6631 60.0318 10.9756C59.9635 11.2881 59.9293 11.6348 59.9293 12.0156V12.3086C59.9293 12.6406 59.9732 12.9482 60.0611 13.2314C60.1539 13.5146 60.2882 13.7612 60.464 13.9712C60.6446 14.1763 60.8595 14.3374 61.1085 14.4546C61.3624 14.5669 61.6505 14.623 61.9728 14.623C62.378 14.623 62.7442 14.5449 63.0714 14.3887C63.4034 14.2275 63.6915 13.9907 63.9356 13.6782L64.9098 14.689C64.7437 14.9331 64.5191 15.1675 64.2359 15.3921C63.9576 15.6167 63.6207 15.7998 63.2252 15.9414C62.8297 16.0781 62.3731 16.1465 61.8556 16.1465ZM68.6009 9.59863V19.0469H66.66V8.0752H68.4544L68.6009 9.59863ZM73.6912 11.957V12.1108C73.6912 12.687 73.6229 13.2217 73.4861 13.7148C73.3543 14.2031 73.159 14.6304 72.9002 14.9966C72.6414 15.3579 72.3191 15.6411 71.9334 15.8462C71.5525 16.0464 71.1131 16.1465 70.615 16.1465C70.1268 16.1465 69.702 16.0537 69.3406 15.8682C68.9793 15.6777 68.6741 15.4092 68.4251 15.0625C68.1761 14.7158 67.9759 14.313 67.8245 13.854C67.678 13.3901 67.5682 12.8848 67.4949 12.3379V11.8472C67.5682 11.2661 67.678 10.7388 67.8245 10.2651C67.9759 9.78662 68.1761 9.37402 68.4251 9.02734C68.6741 8.67578 68.9769 8.40479 69.3333 8.21436C69.6946 8.02393 70.117 7.92871 70.6004 7.92871C71.1033 7.92871 71.5452 8.02393 71.9261 8.21436C72.3118 8.40479 72.6365 8.67822 72.9002 9.03467C73.1639 9.39111 73.3616 9.81592 73.4935 10.3091C73.6253 10.8022 73.6912 11.3516 73.6912 11.957ZM71.7503 12.1108V11.957C71.7503 11.6055 71.7186 11.2808 71.6551 10.9829C71.5916 10.6802 71.4939 10.4165 71.3621 10.1919C71.2303 9.9624 71.0594 9.78418 70.8494 9.65723C70.6395 9.53027 70.3855 9.4668 70.0877 9.4668C69.7898 9.4668 69.5335 9.51562 69.3187 9.61328C69.1038 9.71094 68.928 9.8501 68.7913 10.0308C68.6546 10.2114 68.5472 10.4263 68.469 10.6753C68.3958 10.9194 68.347 11.1904 68.3226 11.4883V12.7041C68.3665 13.0654 68.452 13.3901 68.5789 13.6782C68.7059 13.9663 68.8914 14.1958 69.1355 14.3667C69.3846 14.5376 69.7068 14.623 70.1023 14.623C70.4002 14.623 70.6541 14.5571 70.8641 14.4253C71.074 14.2935 71.2449 14.1128 71.3768 13.8833C71.5086 13.6489 71.6038 13.3804 71.6624 13.0776C71.721 12.7749 71.7503 12.4526 71.7503 12.1108ZM78.9644 16.1465C78.3638 16.1465 77.8242 16.0488 77.3457 15.8535C76.8672 15.6582 76.4595 15.3872 76.1226 15.0405C75.7905 14.689 75.5342 14.2812 75.3535 13.8174C75.1777 13.3486 75.0898 12.8457 75.0898 12.3086V12.0156C75.0898 11.4053 75.1777 10.8511 75.3535 10.353C75.5293 9.8501 75.7783 9.41797 76.1006 9.05664C76.4229 8.69531 76.8086 8.41699 77.2578 8.22168C77.707 8.02637 78.2026 7.92871 78.7446 7.92871C79.3062 7.92871 79.8018 8.02393 80.2314 8.21436C80.6611 8.3999 81.02 8.66357 81.3081 9.00537C81.5962 9.34717 81.8135 9.75732 81.96 10.2358C82.1064 10.7095 82.1797 11.2344 82.1797 11.8105V12.6235H75.9688V11.2905H80.2754V11.144C80.2656 10.8364 80.207 10.5557 80.0996 10.3018C79.9922 10.043 79.8262 9.83789 79.6016 9.68652C79.377 9.53027 79.0864 9.45215 78.73 9.45215C78.4419 9.45215 78.1904 9.51562 77.9756 9.64258C77.7656 9.76465 77.5898 9.94043 77.4482 10.1699C77.3115 10.3945 77.209 10.6631 77.1406 10.9756C77.0723 11.2881 77.0381 11.6348 77.0381 12.0156V12.3086C77.0381 12.6406 77.082 12.9482 77.1699 13.2314C77.2627 13.5146 77.397 13.7612 77.5728 13.9712C77.7534 14.1763 77.9683 14.3374 78.2173 14.4546C78.4712 14.5669 78.7593 14.623 79.0815 14.623C79.4868 14.623 79.853 14.5449 80.1802 14.3887C80.5122 14.2275 80.8003 13.9907 81.0444 13.6782L82.0186 14.689C81.8525 14.9331 81.6279 15.1675 81.3447 15.3921C81.0664 15.6167 80.7295 15.7998 80.334 15.9414C79.9385 16.0781 79.4819 16.1465 78.9644 16.1465ZM88.5295 14.3154V4.75H90.4777V16H88.7199L88.5295 14.3154ZM83.4392 12.1328V11.979C83.4392 11.3735 83.5075 10.8242 83.6442 10.3311C83.7858 9.83301 83.9909 9.40576 84.2595 9.04932C84.528 8.69287 84.8527 8.41699 85.2336 8.22168C85.6193 8.02637 86.0563 7.92871 86.5446 7.92871C87.0183 7.92871 87.4309 8.02393 87.7824 8.21436C88.1389 8.40479 88.4416 8.67578 88.6906 9.02734C88.9445 9.37891 89.1472 9.79639 89.2985 10.2798C89.4499 10.7583 89.5598 11.2856 89.6281 11.8618V12.2793C89.5598 12.8408 89.4499 13.356 89.2985 13.8247C89.1472 14.2935 88.9445 14.7036 88.6906 15.0552C88.4416 15.4019 88.1389 15.6704 87.7824 15.8608C87.426 16.0513 87.0085 16.1465 86.53 16.1465C86.0466 16.1465 85.612 16.0464 85.2263 15.8462C84.8454 15.646 84.5207 15.3652 84.2521 15.0039C83.9885 14.6426 83.7858 14.2178 83.6442 13.7295C83.5075 13.2412 83.4392 12.709 83.4392 12.1328ZM85.3801 11.979V12.1328C85.3801 12.4746 85.4094 12.7944 85.468 13.0923C85.5266 13.3901 85.6218 13.6538 85.7536 13.8833C85.8854 14.1079 86.0539 14.2837 86.259 14.4106C86.4689 14.5376 86.7229 14.6011 87.0207 14.6011C87.4016 14.6011 87.7141 14.5181 87.9582 14.3521C88.2072 14.1812 88.4001 13.9492 88.5368 13.6562C88.6735 13.3584 88.7614 13.0239 88.8005 12.6528V11.5029C88.781 11.21 88.7297 10.939 88.6467 10.6899C88.5686 10.4409 88.4562 10.2261 88.3098 10.0454C88.1682 9.86475 87.9924 9.72314 87.7824 9.62061C87.5725 9.51807 87.3234 9.4668 87.0354 9.4668C86.7375 9.4668 86.4836 9.53271 86.2736 9.66455C86.0637 9.7915 85.8928 9.96973 85.7609 10.1992C85.6291 10.4287 85.5314 10.6948 85.468 10.9976C85.4094 11.3003 85.3801 11.6274 85.3801 11.979ZM94.579 8.0752V16H92.6381V8.0752H94.579ZM92.5062 6.00244C92.5062 5.71436 92.6039 5.4751 92.7992 5.28467C92.9994 5.09424 93.268 4.99902 93.6049 4.99902C93.9418 4.99902 94.2079 5.09424 94.4032 5.28467C94.6034 5.4751 94.7035 5.71436 94.7035 6.00244C94.7035 6.28564 94.6034 6.52246 94.4032 6.71289C94.2079 6.90332 93.9418 6.99854 93.6049 6.99854C93.268 6.99854 92.9994 6.90332 92.7992 6.71289C92.6039 6.52246 92.5062 6.28564 92.5062 6.00244ZM101.09 14.3154V10.6606C101.09 10.3921 101.044 10.1602 100.951 9.96484C100.858 9.76953 100.716 9.61816 100.526 9.51074C100.336 9.40332 100.094 9.34961 99.8009 9.34961C99.5421 9.34961 99.315 9.39355 99.1197 9.48145C98.9293 9.56934 98.7828 9.69385 98.6803 9.85498C98.5777 10.0112 98.5265 10.1919 98.5265 10.397H96.5855C96.5855 10.0698 96.6637 9.75977 96.8199 9.4668C96.9762 9.16895 97.1983 8.90527 97.4864 8.67578C97.7794 8.44141 98.1285 8.2583 98.5338 8.12646C98.9439 7.99463 99.4029 7.92871 99.9107 7.92871C100.511 7.92871 101.046 8.03125 101.515 8.23633C101.988 8.43652 102.359 8.73926 102.628 9.14453C102.901 9.5498 103.038 10.0601 103.038 10.6753V14.1323C103.038 14.5278 103.063 14.8672 103.111 15.1504C103.165 15.4287 103.243 15.6704 103.346 15.8755V16H101.376C101.283 15.7998 101.212 15.5459 101.163 15.2383C101.114 14.9258 101.09 14.6182 101.09 14.3154ZM101.361 11.1733L101.376 12.3232H100.152C99.8497 12.3232 99.5836 12.355 99.3541 12.4185C99.1246 12.4771 98.9366 12.5649 98.7901 12.6821C98.6437 12.7944 98.5338 12.9312 98.4605 13.0923C98.3873 13.2485 98.3507 13.4268 98.3507 13.627C98.3507 13.8223 98.3946 13.998 98.4825 14.1543C98.5753 14.3105 98.7071 14.4351 98.878 14.5278C99.0538 14.6157 99.2589 14.6597 99.4933 14.6597C99.8351 14.6597 100.133 14.5913 100.387 14.4546C100.641 14.313 100.838 14.1421 100.98 13.9419C101.122 13.7417 101.197 13.5513 101.207 13.3706L101.764 14.2056C101.695 14.4058 101.593 14.6182 101.456 14.8428C101.319 15.0674 101.144 15.2773 100.929 15.4727C100.714 15.668 100.455 15.8291 100.152 15.9561C99.8497 16.083 99.4981 16.1465 99.0978 16.1465C98.5851 16.1465 98.1261 16.0439 97.7208 15.8389C97.3155 15.6338 96.9957 15.353 96.7613 14.9966C96.527 14.6401 96.4098 14.2349 96.4098 13.7808C96.4098 13.3608 96.4879 12.9897 96.6441 12.6675C96.8004 12.3452 97.0323 12.0742 97.3399 11.8545C97.6476 11.6299 98.0284 11.4614 98.4825 11.3491C98.9415 11.2319 99.4664 11.1733 100.057 11.1733H101.361Z" fill="#383838"/>
</svg>
