<svg width="26" height="26" viewBox="0 0 26 26" fill="none" xmlns="http://www.w3.org/2000/svg">
<circle cx="12.876" cy="13.2891" r="12.4639" fill="white"/>
<path d="M3.44531 16.4965L9.29263 14.6102M22.4334 10.209L16.4603 12.221" stroke="#383838" stroke-width="0.983998"/>
<circle cx="12.8763" cy="13.2894" r="3.97219" stroke="#383838" stroke-width="0.983998"/>
<circle cx="12.876" cy="13.2896" r="10.008" stroke="#383838" stroke-width="0.983998"/>
<path fill-rule="evenodd" clip-rule="evenodd" d="M17.5241 3.8744C20.0211 5.10716 21.9262 7.28138 22.8202 9.91875L12.9222 13.2739L17.1021 11.8512C16.9133 11.2962 16.6169 10.7839 16.23 10.3435C15.8431 9.903 15.3733 9.54307 14.8473 9.2842C14.3213 9.02533 13.7494 8.87261 13.1644 8.83473C12.5794 8.79686 11.9926 8.87459 11.4377 9.06348C10.8827 9.25237 10.3703 9.54872 9.92988 9.93562C9.48943 10.3225 9.12949 10.7924 8.87063 11.3184C8.61176 11.8444 8.45903 12.4162 8.42116 13.0012C8.38341 13.5844 8.46052 14.1693 8.64811 14.7227L2.93174 16.6603C2.03775 14.023 2.22807 11.1385 3.46083 8.64143C4.69359 6.14438 6.86781 4.23931 9.50518 3.34532C12.1426 2.45133 15.027 2.64165 17.5241 3.8744ZM8.64811 14.7227C8.64871 14.7244 8.64931 14.7262 8.64991 14.728L12.876 13.2896L12.9222 13.2739L12.876 13.2896L8.64811 14.7227Z" fill="#383838"/>
</svg>
