<svg width="124" height="123" viewBox="0 0 124 123" fill="none" xmlns="http://www.w3.org/2000/svg">
<g opacity="0.2">
<path fill-rule="evenodd" clip-rule="evenodd" d="M118.852 46.0943L83.953 57.8498L82.1178 52.4015L117.017 40.646L118.852 46.0943ZM42.0401 71.8207L7.87637 82.8415L6.11133 77.37L40.2751 66.3492L42.0401 71.8207Z" fill="white"/>
<path fill-rule="evenodd" clip-rule="evenodd" d="M62.0943 81.7042C73.3242 81.7042 82.4278 72.6006 82.4278 61.3707C82.4278 50.1408 73.3242 41.0372 62.0943 41.0372C50.8645 41.0372 41.7609 50.1408 41.7609 61.3707C41.7609 72.6006 50.8645 81.7042 62.0943 81.7042ZM62.0943 87.4533C76.4994 87.4533 88.177 75.7757 88.177 61.3707C88.177 46.9657 76.4994 35.2881 62.0943 35.2881C47.6893 35.2881 36.0117 46.9657 36.0117 61.3707C36.0117 75.7757 47.6893 87.4533 62.0943 87.4533Z" fill="white"/>
<path fill-rule="evenodd" clip-rule="evenodd" d="M62.0947 116.969C92.8009 116.969 117.693 92.0763 117.693 61.3701C117.693 30.6639 92.8009 5.7716 62.0947 5.7716C31.3885 5.7716 6.49621 30.6639 6.49621 61.3701C6.49621 92.0763 31.3885 116.969 62.0947 116.969ZM62.0947 122.718C95.9761 122.718 123.442 95.2515 123.442 61.3701C123.442 27.4887 95.9761 0.0224609 62.0947 0.0224609C28.2134 0.0224609 0.74707 27.4887 0.74707 61.3701C0.74707 95.2515 28.2134 122.718 62.0947 122.718Z" fill="white"/>
<path fill-rule="evenodd" clip-rule="evenodd" d="M89.252 6.36091C103.841 13.5635 114.972 26.2666 120.195 41.6758L62.4375 61.254L86.7862 52.9668C85.6826 49.7243 83.9511 46.7309 81.6906 44.1575C79.4301 41.5841 76.6849 39.4811 73.6117 37.9686C70.5385 36.4562 67.1975 35.5639 63.7794 35.3426C60.3614 35.1213 56.9332 35.5755 53.6907 36.6791C50.4481 37.7827 47.4547 39.5142 44.8813 41.7746C42.3079 44.0351 40.2049 46.7803 38.6925 49.8535C37.18 52.9267 36.2877 56.2677 36.0664 59.6858C35.8458 63.093 36.2964 66.5102 37.3923 69.7435L3.99427 81.0645C-1.22899 65.6553 -0.117031 48.8022 7.08553 34.2129C14.2881 19.6235 26.9912 8.49292 42.4004 3.26966C57.8097 -1.9536 74.6627 -0.841642 89.252 6.36091ZM37.3923 69.7435C37.3958 69.7539 37.3994 69.7643 37.4029 69.7746L62.0945 61.3707L62.4375 61.254L62.0948 61.3702L37.3923 69.7435Z" fill="white"/>
</g>
</svg>
