<svg width="1281" height="1281" viewBox="0 0 1281 1281" fill="none" xmlns="http://www.w3.org/2000/svg">
<path d="M65.6562 836.319L422.064 721.346M1223.02 453.08L858.948 575.718" stroke="#F6F6F6" stroke-width="59.977"/>
<circle cx="640.498" cy="640.837" r="242.114" stroke="#F6F6F6" stroke-width="59.977"/>
<circle cx="640.479" cy="640.849" r="610.011" stroke="#F6F6F6" stroke-width="59.977"/>
<path fill-rule="evenodd" clip-rule="evenodd" d="M923.792 66.9726C1075.99 142.112 1192.11 274.636 1246.6 435.39L640.478 640.848L637.784 641.761L640.498 640.838L898.09 553.165C886.577 519.338 868.513 488.11 844.931 461.263C821.349 434.416 792.71 412.478 760.649 396.699C728.589 380.921 693.734 371.611 658.076 369.303C622.417 366.995 586.653 371.732 552.826 383.246C518.998 394.759 487.77 412.822 460.923 436.404C434.077 459.986 412.138 488.625 396.359 520.686C380.581 552.747 371.272 587.602 368.963 623.26C366.662 658.807 371.363 694.46 382.799 728.194L34.3534 846.306C-20.1374 685.552 -8.53707 509.735 66.6025 357.534C141.742 205.333 274.266 89.2144 435.02 34.7236C595.774 -19.7673 771.591 -8.16696 923.792 66.9726ZM382.799 728.194C382.834 728.299 382.87 728.404 382.906 728.51L637.784 641.761L382.799 728.194Z" fill="#F8F8F8"/>
</svg>
