<svg width="16" height="16" viewBox="0 0 16 16" fill="none" xmlns="http://www.w3.org/2000/svg">
<path d="M14.3193 15.4944L9.06032 10.2466C8.67294 10.5658 8.21815 10.8155 7.69596 10.9954C7.17378 11.1754 6.61231 11.2654 6.01155 11.2654C4.53595 11.2654 3.28655 10.7533 2.26334 9.72898C1.24012 8.70471 0.728516 7.469 0.728516 6.02185C0.728516 4.57471 1.24066 3.339 2.26494 2.31473C3.28921 1.29046 4.52821 0.77832 5.98194 0.77832C7.43565 0.77832 8.67136 1.29046 9.68905 2.31473C10.7067 3.339 11.2156 4.57569 11.2156 6.02481C11.2156 6.60364 11.1291 7.15069 10.956 7.66599C10.7829 8.18127 10.5232 8.66551 10.177 9.11871L15.4557 14.3579L14.3193 15.4944ZM5.99574 9.7015C7.01781 9.7015 7.88266 9.34264 8.59027 8.62493C9.29789 7.90724 9.6517 7.03954 9.6517 6.02185C9.6517 5.00416 9.29734 4.13647 8.58863 3.41877C7.87992 2.70106 7.01563 2.34221 5.99574 2.34221C4.96489 2.34221 4.08996 2.70106 3.37094 3.41877C2.65193 4.13647 2.29242 5.00416 2.29242 6.02185C2.29242 7.03954 2.65138 7.90724 3.3693 8.62493C4.08722 9.34264 4.9627 9.7015 5.99574 9.7015Z" fill="#383838"/>
</svg>
