<svg width="235" height="92" viewBox="0 0 235 92" fill="none" xmlns="http://www.w3.org/2000/svg">
<path opacity="0.45" d="M182.698 45.9756C182.698 49.5942 180.919 53.0675 177.646 56.254C174.372 59.4415 169.621 62.3247 163.727 64.7519C151.94 69.6059 135.638 72.6146 117.616 72.6146C99.5952 72.6146 83.293 69.6059 71.5064 64.7519C65.6124 62.3247 60.8609 59.4415 57.5872 56.254C54.3144 53.0675 52.5348 49.5942 52.5348 45.9756C52.5348 42.3569 54.3144 38.8836 57.5872 35.6971C60.8609 32.5096 65.6124 29.6264 71.5064 27.1992C83.293 22.3452 99.5952 19.3365 117.616 19.3365C135.638 19.3365 151.94 22.3452 163.727 27.1992C169.621 29.6264 174.372 32.5096 177.646 35.6971C180.919 38.8836 182.698 42.3569 182.698 45.9756Z" stroke="white" stroke-width="0.553887"/>
<path opacity="0.23" d="M197.174 45.9753C197.174 50.3904 195.006 54.6329 191.009 58.5302C187.011 62.4287 181.205 65.9575 173.999 68.9293C159.589 74.8723 139.654 78.5571 117.615 78.5571C95.5759 78.5571 75.6415 74.8723 61.2313 68.9293C54.0253 65.9575 48.2194 62.4287 44.2211 58.5302C40.2241 54.6329 38.0561 50.3904 38.0561 45.9753C38.0561 41.5602 40.2241 37.3178 44.2211 33.4205C48.2194 29.5219 54.0253 25.9931 61.2313 23.0213C75.6415 17.0784 95.5759 13.3935 117.615 13.3935C139.654 13.3935 159.589 17.0784 173.999 23.0213C181.205 25.9931 187.011 29.5219 191.009 33.4205C195.006 37.3178 197.174 41.5602 197.174 45.9753Z" stroke="white" stroke-width="0.780178"/>
<path opacity="0.13" d="M213.491 45.9757C213.491 51.3198 210.867 56.4474 206.044 61.1497C201.22 65.8532 194.22 70.107 185.537 73.6877C168.175 80.8483 144.161 85.2863 117.616 85.2863C91.0718 85.2863 67.0584 80.8483 49.6956 73.6877C41.0133 70.107 34.0128 65.8532 29.1889 61.1497C24.3662 56.4474 21.7417 51.3198 21.7417 45.9757C21.7417 40.6315 24.3662 35.504 29.1889 30.8016C34.0128 26.0981 41.0133 21.8443 49.6956 18.2636C67.0584 11.103 91.0718 6.66499 117.616 6.66499C144.161 6.66499 168.175 11.103 185.537 18.2636C194.22 21.8443 201.22 26.0981 206.044 30.8016C210.867 35.504 213.491 40.6315 213.491 45.9757Z" stroke="white" stroke-width="0.780178"/>
<path opacity="0.05" d="M234.124 45.9755C234.124 52.1232 230.94 58.0282 225.077 63.4485C219.214 68.8692 210.706 73.7716 200.154 77.898C179.053 86.1497 149.871 91.2632 117.616 91.2632C85.3604 91.2632 56.179 86.1497 35.078 77.898C24.5261 73.7716 16.0175 68.8692 10.1544 63.4485C4.29186 58.0282 1.1076 52.1232 1.1076 45.9755C1.1076 39.8277 4.29186 33.9228 10.1544 28.5025C16.0175 23.0817 24.5261 18.1793 35.078 14.0529C56.179 5.80121 85.3604 0.687682 117.616 0.687682C149.871 0.687682 179.053 5.80121 200.154 14.0529C210.706 18.1793 219.214 23.0817 225.077 28.5025C230.94 33.9228 234.124 39.8277 234.124 45.9755Z" stroke="white" stroke-width="0.898802"/>
</svg>
